<mxfile host="Electron" modified="2023-12-03T07:12:39.435Z" agent="Mozilla/5.0 (Windows NT 10.0; Win64; x64) AppleWebKit/537.36 (KHTML, like Gecko) draw.io/22.1.2 Chrome/114.0.5735.289 Electron/25.9.4 Safari/537.36" etag="4BSuNGawtcsIZYDVweYd" version="22.1.2" type="device">
  <diagram name="Seite-1" id="zSqDJbW_LelD1mT56Rdw">
    <mxGraphModel dx="780" dy="504" grid="1" gridSize="10" guides="1" tooltips="1" connect="1" arrows="1" fold="1" page="1" pageScale="1" pageWidth="827" pageHeight="1169" math="0" shadow="0">
      <root>
        <mxCell id="0" />
        <mxCell id="1" parent="0" />
        <mxCell id="weL6R8PA8-AbjZUsDltD-11" value="" style="edgeStyle=orthogonalEdgeStyle;rounded=0;orthogonalLoop=1;jettySize=auto;html=1;" edge="1" parent="1" source="weL6R8PA8-AbjZUsDltD-3" target="weL6R8PA8-AbjZUsDltD-5">
          <mxGeometry relative="1" as="geometry" />
        </mxCell>
        <mxCell id="weL6R8PA8-AbjZUsDltD-3" value="Download JSON-File for the five different accessibility levels" style="whiteSpace=wrap;html=1;aspect=fixed;" vertex="1" parent="1">
          <mxGeometry x="190" y="100" width="100" height="100" as="geometry" />
        </mxCell>
        <mxCell id="weL6R8PA8-AbjZUsDltD-10" value="" style="edgeStyle=orthogonalEdgeStyle;rounded=0;orthogonalLoop=1;jettySize=auto;html=1;" edge="1" parent="1" source="weL6R8PA8-AbjZUsDltD-4" target="weL6R8PA8-AbjZUsDltD-3">
          <mxGeometry relative="1" as="geometry" />
        </mxCell>
        <mxCell id="weL6R8PA8-AbjZUsDltD-4" value="setup.py" style="ellipse;whiteSpace=wrap;html=1;" vertex="1" parent="1">
          <mxGeometry x="30" y="110" width="120" height="80" as="geometry" />
        </mxCell>
        <mxCell id="weL6R8PA8-AbjZUsDltD-12" value="" style="edgeStyle=orthogonalEdgeStyle;rounded=0;orthogonalLoop=1;jettySize=auto;html=1;" edge="1" parent="1" source="weL6R8PA8-AbjZUsDltD-5" target="weL6R8PA8-AbjZUsDltD-6">
          <mxGeometry relative="1" as="geometry" />
        </mxCell>
        <mxCell id="weL6R8PA8-AbjZUsDltD-5" value="Clean JSON-File" style="whiteSpace=wrap;html=1;aspect=fixed;" vertex="1" parent="1">
          <mxGeometry x="321" y="100" width="100" height="100" as="geometry" />
        </mxCell>
        <mxCell id="weL6R8PA8-AbjZUsDltD-13" value="" style="edgeStyle=orthogonalEdgeStyle;rounded=0;orthogonalLoop=1;jettySize=auto;html=1;" edge="1" parent="1" source="weL6R8PA8-AbjZUsDltD-6" target="weL6R8PA8-AbjZUsDltD-7">
          <mxGeometry relative="1" as="geometry" />
        </mxCell>
        <mxCell id="weL6R8PA8-AbjZUsDltD-6" value="Generate JSON Schema for cleaned data" style="whiteSpace=wrap;html=1;aspect=fixed;" vertex="1" parent="1">
          <mxGeometry x="447" y="100" width="100" height="100" as="geometry" />
        </mxCell>
        <mxCell id="weL6R8PA8-AbjZUsDltD-14" value="" style="edgeStyle=orthogonalEdgeStyle;rounded=0;orthogonalLoop=1;jettySize=auto;html=1;" edge="1" parent="1" source="weL6R8PA8-AbjZUsDltD-7" target="weL6R8PA8-AbjZUsDltD-8">
          <mxGeometry relative="1" as="geometry" />
        </mxCell>
        <mxCell id="weL6R8PA8-AbjZUsDltD-7" value="Store JSON-Files to NOSQL Document Database" style="whiteSpace=wrap;html=1;aspect=fixed;" vertex="1" parent="1">
          <mxGeometry x="570" y="100" width="100" height="100" as="geometry" />
        </mxCell>
        <mxCell id="weL6R8PA8-AbjZUsDltD-8" value="Setup finished" style="ellipse;whiteSpace=wrap;html=1;" vertex="1" parent="1">
          <mxGeometry x="700" y="110" width="120" height="80" as="geometry" />
        </mxCell>
      </root>
    </mxGraphModel>
  </diagram>
</mxfile>
